<?xml version="1.0" standalone="no"?>
<!DOCTYPE svg PUBLIC "-//W3C//DTD SVG 20010904//EN"
 "http://www.w3.org/TR/2001/REC-SVG-20010904/DTD/svg10.dtd">
<svg version="1.0" xmlns="http://www.w3.org/2000/svg"
 width="143.000000pt" height="143.000000pt" viewBox="0 0 143.000000 143.000000"
 preserveAspectRatio="xMidYMid meet">
<metadata>
Created by potrace 1.14, written by Peter Selinger 2001-2017
</metadata>
<g transform="translate(0.000000,143.000000) scale(0.100000,-0.100000)"
fill="#000000" stroke="none">
<path d="M81 1345 c-4 -5 -7 -296 -7 -645 l1 -635 633 -5 c556 -4 633 -3 636
10 10 36 3 1271 -7 1277 -18 11 -1248 9 -1256 -2z m1224 -37 c4 -3 6 -255 6
-559 -1 -305 -1 -575 -1 -601 l0 -48 -600 0 -600 0 0 604 c0 394 3 605 10 608
18 6 1179 2 1185 -4z"/>
<path d="M237 1150 c-21 -3 -38 -8 -37 -12 0 -5 0 -12 0 -16 0 -4 10 -9 23
-10 12 -2 33 -4 47 -6 14 -2 28 -4 31 -4 22 -6 26 -76 25 -408 -1 -336 -2
-363 -19 -382 -10 -11 -31 -20 -45 -20 -54 1 -62 -2 -62 -23 0 -18 5 -21 35
-17 19 2 35 0 35 -5 0 -6 5 -6 13 0 6 5 74 9 150 8 126 -1 137 0 137 17 0 10
-6 18 -12 19 -111 7 -103 -10 -109 256 -2 73 0 136 4 139 4 4 26 9 50 12 57 5
385 5 422 -1 17 -3 35 -5 40 -6 9 -1 11 -145 4 -304 -3 -82 -15 -94 -96 -96
-22 -1 -33 -6 -33 -16 0 -19 -16 -17 198 -20 171 -2 182 -1 182 17 0 18 -12
22 -60 19 -15 -1 -34 7 -45 19 -19 21 -20 40 -21 391 -1 403 0 408 55 407 15
-1 33 2 40 6 6 4 11 2 11 -4 0 -6 5 -8 10 -5 6 3 10 15 10 26 0 15 -7 19 -37
20 -37 0 -260 0 -315 -1 -19 0 -26 -5 -24 -17 3 -20 27 -30 67 -27 52 4 57
-15 61 -223 1 -62 -2 -116 -6 -120 -10 -10 -502 -10 -512 -1 -8 9 -7 270 1
310 6 26 29 43 46 32 5 -3 9 -1 9 5 0 6 11 6 30 1 27 -8 30 -7 30 16 0 24 -8
28 -55 26 -70 -2 -98 -2 -165 0 -41 2 -92 1 -113 -2z"/>
</g>
</svg>
